G75*
%MOIN*%
%OFA0B0*%
%FSLAX25Y25*%
%IPPOS*%
%LPD*%
%AMOC8*
5,1,8,0,0,1.08239X$1,22.5*
%
%ADD10C,0.13800*%
%ADD11C,0.08200*%
%ADD12R,0.08200X0.08200*%
%ADD13R,0.07887X0.07099*%
%ADD14R,0.07099X0.07887*%
%ADD15C,0.06000*%
%ADD16C,0.05156*%
D10*
X0498333Y0016000D03*
X0618333Y0016000D03*
X0618333Y0101000D03*
X0498333Y0101000D03*
D11*
X0522633Y0106000D03*
X0534033Y0106000D03*
X0547633Y0106000D03*
X0559033Y0106000D03*
X0572633Y0106000D03*
X0584033Y0106000D03*
X0598333Y0106700D03*
X0598333Y0095300D03*
X0584033Y0086000D03*
X0572633Y0086000D03*
X0559033Y0086000D03*
X0547633Y0086000D03*
X0534033Y0086000D03*
X0522633Y0086000D03*
X0618333Y0076700D03*
X0618333Y0065300D03*
X0588333Y0011500D03*
X0598333Y0010500D03*
X0578333Y0010500D03*
X0548333Y0011500D03*
X0538333Y0010500D03*
X0528333Y0011500D03*
D12*
X0558333Y0010500D03*
D13*
X0493333Y0050488D03*
X0503333Y0046512D03*
X0503333Y0035488D03*
X0603333Y0040488D03*
X0623333Y0040488D03*
X0623333Y0051512D03*
X0603333Y0051512D03*
X0503333Y0070488D03*
X0493333Y0061512D03*
X0503333Y0081512D03*
D14*
X0517822Y0071000D03*
X0528845Y0071000D03*
X0537822Y0071000D03*
X0548845Y0071000D03*
X0557822Y0071000D03*
X0568845Y0071000D03*
X0577822Y0071000D03*
X0588845Y0071000D03*
D15*
X0588333Y0058600D02*
X0588333Y0053400D01*
X0578333Y0053400D02*
X0578333Y0058600D01*
X0568333Y0058600D02*
X0568333Y0053400D01*
X0558333Y0053400D02*
X0558333Y0058600D01*
X0548333Y0058600D02*
X0548333Y0053400D01*
X0538333Y0053400D02*
X0538333Y0058600D01*
X0528333Y0058600D02*
X0528333Y0053400D01*
X0518333Y0053400D02*
X0518333Y0058600D01*
X0518333Y0028600D02*
X0518333Y0023400D01*
X0528333Y0023400D02*
X0528333Y0028600D01*
X0538333Y0028600D02*
X0538333Y0023400D01*
X0548333Y0023400D02*
X0548333Y0028600D01*
X0558333Y0028600D02*
X0558333Y0023400D01*
X0568333Y0023400D02*
X0568333Y0028600D01*
X0578333Y0028600D02*
X0578333Y0023400D01*
X0588333Y0023400D02*
X0588333Y0028600D01*
D16*
X0512333Y0039000D03*
X0536333Y0046000D03*
X0573333Y0050500D03*
X0611833Y0051500D03*
X0589833Y0064000D03*
X0599833Y0070500D03*
X0566333Y0078000D03*
X0545833Y0078000D03*
X0535833Y0078000D03*
X0603333Y0081000D03*
X0523333Y0097500D03*
X0506833Y0056500D03*
M02*
