%
M48
M72
T01C0.03200
T02C0.04000
T03C0.13000
%
T01
X523333Y31000
X533333Y31000
X543333Y31000
X553333Y31000
X563333Y31000
X573333Y31000
X583333Y31000
X593333Y31000
X593333Y61000
X583333Y61000
X573333Y61000
X563333Y61000
X553333Y61000
X543333Y61000
X533333Y61000
X523333Y61000
T02
X493833Y51000
X508833Y51000
X507833Y61000
X492833Y61000
X493833Y71000
X508833Y71000
X528333Y80500
X538333Y81500
X518333Y81500
X573333Y86500
X583333Y85500
X593333Y86500
X603333Y85500
X613333Y86500
X579833Y100500
X589833Y101500
X569833Y101500
X559833Y100500
X549833Y101500
X538333Y96500
X528333Y95500
X518333Y96500
X608333Y66500
X618333Y65500
X628333Y66500
X628333Y51500
X618333Y50500
X608333Y51500
X608333Y36500
X618333Y35500
X628333Y36500
X588333Y11500
X578333Y10500
X563333Y10500
X553333Y11500
X543333Y10500
X533333Y11500
X598333Y10500
T03
X628333Y16000
X498333Y16000
X498333Y101000
X628333Y101000
M30
