%
M48
M72
T01C0.02756
T02C0.03200
T03C0.04000
T04C0.13000
%
T01
X506833Y56500
X536333Y46000
X573333Y50500
X611833Y51500
X589833Y64000
X599833Y70500
X566333Y78000
X545833Y78000
X535833Y78000
X603333Y81000
X523333Y97500
X512333Y39000
T02
X518333Y26000
X528333Y26000
X538333Y26000
X548333Y26000
X558333Y26000
X568333Y26000
X578333Y26000
X588333Y26000
X588333Y56000
X578333Y56000
X568333Y56000
X558333Y56000
X548333Y56000
X538333Y56000
X528333Y56000
X518333Y56000
T03
X618333Y65300
X618333Y76700
X584033Y86000
X572633Y86000
X559033Y86000
X547633Y86000
X534033Y86000
X522633Y86000
X598333Y95300
X584033Y106000
X572633Y106000
X559033Y106000
X547633Y106000
X534033Y106000
X522633Y106000
X598333Y106700
X588333Y11500
X598333Y10500
X578333Y10500
X558333Y10500
X548333Y11500
X538333Y10500
X528333Y11500
T04
X498333Y16000
X618333Y16000
X618333Y101000
X498333Y101000
M30
