G75*
%MOIN*%
%OFA0B0*%
%FSLAX25Y25*%
%IPPOS*%
%LPD*%
%AMOC8*
5,1,8,0,0,1.08239X$1,22.5*
%
%ADD10C,0.00000*%
%ADD11C,0.07400*%
%ADD12R,0.07400X0.07400*%
%ADD13C,0.05200*%
%ADD14R,0.06299X0.07087*%
%ADD15C,0.01000*%
D10*
X0483333Y0001000D02*
X0483333Y0115961D01*
X0642034Y0115961D01*
X0642034Y0001000D01*
X0483333Y0001000D01*
X0491833Y0016000D02*
X0491835Y0016161D01*
X0491841Y0016321D01*
X0491851Y0016482D01*
X0491865Y0016642D01*
X0491883Y0016802D01*
X0491904Y0016961D01*
X0491930Y0017120D01*
X0491960Y0017278D01*
X0491993Y0017435D01*
X0492031Y0017592D01*
X0492072Y0017747D01*
X0492117Y0017901D01*
X0492166Y0018054D01*
X0492219Y0018206D01*
X0492275Y0018357D01*
X0492336Y0018506D01*
X0492399Y0018654D01*
X0492467Y0018800D01*
X0492538Y0018944D01*
X0492612Y0019086D01*
X0492690Y0019227D01*
X0492772Y0019365D01*
X0492857Y0019502D01*
X0492945Y0019636D01*
X0493037Y0019768D01*
X0493132Y0019898D01*
X0493230Y0020026D01*
X0493331Y0020151D01*
X0493435Y0020273D01*
X0493542Y0020393D01*
X0493652Y0020510D01*
X0493765Y0020625D01*
X0493881Y0020736D01*
X0494000Y0020845D01*
X0494121Y0020950D01*
X0494245Y0021053D01*
X0494371Y0021153D01*
X0494499Y0021249D01*
X0494630Y0021342D01*
X0494764Y0021432D01*
X0494899Y0021519D01*
X0495037Y0021602D01*
X0495176Y0021682D01*
X0495318Y0021758D01*
X0495461Y0021831D01*
X0495606Y0021900D01*
X0495753Y0021966D01*
X0495901Y0022028D01*
X0496051Y0022086D01*
X0496202Y0022141D01*
X0496355Y0022192D01*
X0496509Y0022239D01*
X0496664Y0022282D01*
X0496820Y0022321D01*
X0496976Y0022357D01*
X0497134Y0022388D01*
X0497292Y0022416D01*
X0497451Y0022440D01*
X0497611Y0022460D01*
X0497771Y0022476D01*
X0497931Y0022488D01*
X0498092Y0022496D01*
X0498253Y0022500D01*
X0498413Y0022500D01*
X0498574Y0022496D01*
X0498735Y0022488D01*
X0498895Y0022476D01*
X0499055Y0022460D01*
X0499215Y0022440D01*
X0499374Y0022416D01*
X0499532Y0022388D01*
X0499690Y0022357D01*
X0499846Y0022321D01*
X0500002Y0022282D01*
X0500157Y0022239D01*
X0500311Y0022192D01*
X0500464Y0022141D01*
X0500615Y0022086D01*
X0500765Y0022028D01*
X0500913Y0021966D01*
X0501060Y0021900D01*
X0501205Y0021831D01*
X0501348Y0021758D01*
X0501490Y0021682D01*
X0501629Y0021602D01*
X0501767Y0021519D01*
X0501902Y0021432D01*
X0502036Y0021342D01*
X0502167Y0021249D01*
X0502295Y0021153D01*
X0502421Y0021053D01*
X0502545Y0020950D01*
X0502666Y0020845D01*
X0502785Y0020736D01*
X0502901Y0020625D01*
X0503014Y0020510D01*
X0503124Y0020393D01*
X0503231Y0020273D01*
X0503335Y0020151D01*
X0503436Y0020026D01*
X0503534Y0019898D01*
X0503629Y0019768D01*
X0503721Y0019636D01*
X0503809Y0019502D01*
X0503894Y0019365D01*
X0503976Y0019227D01*
X0504054Y0019086D01*
X0504128Y0018944D01*
X0504199Y0018800D01*
X0504267Y0018654D01*
X0504330Y0018506D01*
X0504391Y0018357D01*
X0504447Y0018206D01*
X0504500Y0018054D01*
X0504549Y0017901D01*
X0504594Y0017747D01*
X0504635Y0017592D01*
X0504673Y0017435D01*
X0504706Y0017278D01*
X0504736Y0017120D01*
X0504762Y0016961D01*
X0504783Y0016802D01*
X0504801Y0016642D01*
X0504815Y0016482D01*
X0504825Y0016321D01*
X0504831Y0016161D01*
X0504833Y0016000D01*
X0504831Y0015839D01*
X0504825Y0015679D01*
X0504815Y0015518D01*
X0504801Y0015358D01*
X0504783Y0015198D01*
X0504762Y0015039D01*
X0504736Y0014880D01*
X0504706Y0014722D01*
X0504673Y0014565D01*
X0504635Y0014408D01*
X0504594Y0014253D01*
X0504549Y0014099D01*
X0504500Y0013946D01*
X0504447Y0013794D01*
X0504391Y0013643D01*
X0504330Y0013494D01*
X0504267Y0013346D01*
X0504199Y0013200D01*
X0504128Y0013056D01*
X0504054Y0012914D01*
X0503976Y0012773D01*
X0503894Y0012635D01*
X0503809Y0012498D01*
X0503721Y0012364D01*
X0503629Y0012232D01*
X0503534Y0012102D01*
X0503436Y0011974D01*
X0503335Y0011849D01*
X0503231Y0011727D01*
X0503124Y0011607D01*
X0503014Y0011490D01*
X0502901Y0011375D01*
X0502785Y0011264D01*
X0502666Y0011155D01*
X0502545Y0011050D01*
X0502421Y0010947D01*
X0502295Y0010847D01*
X0502167Y0010751D01*
X0502036Y0010658D01*
X0501902Y0010568D01*
X0501767Y0010481D01*
X0501629Y0010398D01*
X0501490Y0010318D01*
X0501348Y0010242D01*
X0501205Y0010169D01*
X0501060Y0010100D01*
X0500913Y0010034D01*
X0500765Y0009972D01*
X0500615Y0009914D01*
X0500464Y0009859D01*
X0500311Y0009808D01*
X0500157Y0009761D01*
X0500002Y0009718D01*
X0499846Y0009679D01*
X0499690Y0009643D01*
X0499532Y0009612D01*
X0499374Y0009584D01*
X0499215Y0009560D01*
X0499055Y0009540D01*
X0498895Y0009524D01*
X0498735Y0009512D01*
X0498574Y0009504D01*
X0498413Y0009500D01*
X0498253Y0009500D01*
X0498092Y0009504D01*
X0497931Y0009512D01*
X0497771Y0009524D01*
X0497611Y0009540D01*
X0497451Y0009560D01*
X0497292Y0009584D01*
X0497134Y0009612D01*
X0496976Y0009643D01*
X0496820Y0009679D01*
X0496664Y0009718D01*
X0496509Y0009761D01*
X0496355Y0009808D01*
X0496202Y0009859D01*
X0496051Y0009914D01*
X0495901Y0009972D01*
X0495753Y0010034D01*
X0495606Y0010100D01*
X0495461Y0010169D01*
X0495318Y0010242D01*
X0495176Y0010318D01*
X0495037Y0010398D01*
X0494899Y0010481D01*
X0494764Y0010568D01*
X0494630Y0010658D01*
X0494499Y0010751D01*
X0494371Y0010847D01*
X0494245Y0010947D01*
X0494121Y0011050D01*
X0494000Y0011155D01*
X0493881Y0011264D01*
X0493765Y0011375D01*
X0493652Y0011490D01*
X0493542Y0011607D01*
X0493435Y0011727D01*
X0493331Y0011849D01*
X0493230Y0011974D01*
X0493132Y0012102D01*
X0493037Y0012232D01*
X0492945Y0012364D01*
X0492857Y0012498D01*
X0492772Y0012635D01*
X0492690Y0012773D01*
X0492612Y0012914D01*
X0492538Y0013056D01*
X0492467Y0013200D01*
X0492399Y0013346D01*
X0492336Y0013494D01*
X0492275Y0013643D01*
X0492219Y0013794D01*
X0492166Y0013946D01*
X0492117Y0014099D01*
X0492072Y0014253D01*
X0492031Y0014408D01*
X0491993Y0014565D01*
X0491960Y0014722D01*
X0491930Y0014880D01*
X0491904Y0015039D01*
X0491883Y0015198D01*
X0491865Y0015358D01*
X0491851Y0015518D01*
X0491841Y0015679D01*
X0491835Y0015839D01*
X0491833Y0016000D01*
X0621833Y0016000D02*
X0621835Y0016161D01*
X0621841Y0016321D01*
X0621851Y0016482D01*
X0621865Y0016642D01*
X0621883Y0016802D01*
X0621904Y0016961D01*
X0621930Y0017120D01*
X0621960Y0017278D01*
X0621993Y0017435D01*
X0622031Y0017592D01*
X0622072Y0017747D01*
X0622117Y0017901D01*
X0622166Y0018054D01*
X0622219Y0018206D01*
X0622275Y0018357D01*
X0622336Y0018506D01*
X0622399Y0018654D01*
X0622467Y0018800D01*
X0622538Y0018944D01*
X0622612Y0019086D01*
X0622690Y0019227D01*
X0622772Y0019365D01*
X0622857Y0019502D01*
X0622945Y0019636D01*
X0623037Y0019768D01*
X0623132Y0019898D01*
X0623230Y0020026D01*
X0623331Y0020151D01*
X0623435Y0020273D01*
X0623542Y0020393D01*
X0623652Y0020510D01*
X0623765Y0020625D01*
X0623881Y0020736D01*
X0624000Y0020845D01*
X0624121Y0020950D01*
X0624245Y0021053D01*
X0624371Y0021153D01*
X0624499Y0021249D01*
X0624630Y0021342D01*
X0624764Y0021432D01*
X0624899Y0021519D01*
X0625037Y0021602D01*
X0625176Y0021682D01*
X0625318Y0021758D01*
X0625461Y0021831D01*
X0625606Y0021900D01*
X0625753Y0021966D01*
X0625901Y0022028D01*
X0626051Y0022086D01*
X0626202Y0022141D01*
X0626355Y0022192D01*
X0626509Y0022239D01*
X0626664Y0022282D01*
X0626820Y0022321D01*
X0626976Y0022357D01*
X0627134Y0022388D01*
X0627292Y0022416D01*
X0627451Y0022440D01*
X0627611Y0022460D01*
X0627771Y0022476D01*
X0627931Y0022488D01*
X0628092Y0022496D01*
X0628253Y0022500D01*
X0628413Y0022500D01*
X0628574Y0022496D01*
X0628735Y0022488D01*
X0628895Y0022476D01*
X0629055Y0022460D01*
X0629215Y0022440D01*
X0629374Y0022416D01*
X0629532Y0022388D01*
X0629690Y0022357D01*
X0629846Y0022321D01*
X0630002Y0022282D01*
X0630157Y0022239D01*
X0630311Y0022192D01*
X0630464Y0022141D01*
X0630615Y0022086D01*
X0630765Y0022028D01*
X0630913Y0021966D01*
X0631060Y0021900D01*
X0631205Y0021831D01*
X0631348Y0021758D01*
X0631490Y0021682D01*
X0631629Y0021602D01*
X0631767Y0021519D01*
X0631902Y0021432D01*
X0632036Y0021342D01*
X0632167Y0021249D01*
X0632295Y0021153D01*
X0632421Y0021053D01*
X0632545Y0020950D01*
X0632666Y0020845D01*
X0632785Y0020736D01*
X0632901Y0020625D01*
X0633014Y0020510D01*
X0633124Y0020393D01*
X0633231Y0020273D01*
X0633335Y0020151D01*
X0633436Y0020026D01*
X0633534Y0019898D01*
X0633629Y0019768D01*
X0633721Y0019636D01*
X0633809Y0019502D01*
X0633894Y0019365D01*
X0633976Y0019227D01*
X0634054Y0019086D01*
X0634128Y0018944D01*
X0634199Y0018800D01*
X0634267Y0018654D01*
X0634330Y0018506D01*
X0634391Y0018357D01*
X0634447Y0018206D01*
X0634500Y0018054D01*
X0634549Y0017901D01*
X0634594Y0017747D01*
X0634635Y0017592D01*
X0634673Y0017435D01*
X0634706Y0017278D01*
X0634736Y0017120D01*
X0634762Y0016961D01*
X0634783Y0016802D01*
X0634801Y0016642D01*
X0634815Y0016482D01*
X0634825Y0016321D01*
X0634831Y0016161D01*
X0634833Y0016000D01*
X0634831Y0015839D01*
X0634825Y0015679D01*
X0634815Y0015518D01*
X0634801Y0015358D01*
X0634783Y0015198D01*
X0634762Y0015039D01*
X0634736Y0014880D01*
X0634706Y0014722D01*
X0634673Y0014565D01*
X0634635Y0014408D01*
X0634594Y0014253D01*
X0634549Y0014099D01*
X0634500Y0013946D01*
X0634447Y0013794D01*
X0634391Y0013643D01*
X0634330Y0013494D01*
X0634267Y0013346D01*
X0634199Y0013200D01*
X0634128Y0013056D01*
X0634054Y0012914D01*
X0633976Y0012773D01*
X0633894Y0012635D01*
X0633809Y0012498D01*
X0633721Y0012364D01*
X0633629Y0012232D01*
X0633534Y0012102D01*
X0633436Y0011974D01*
X0633335Y0011849D01*
X0633231Y0011727D01*
X0633124Y0011607D01*
X0633014Y0011490D01*
X0632901Y0011375D01*
X0632785Y0011264D01*
X0632666Y0011155D01*
X0632545Y0011050D01*
X0632421Y0010947D01*
X0632295Y0010847D01*
X0632167Y0010751D01*
X0632036Y0010658D01*
X0631902Y0010568D01*
X0631767Y0010481D01*
X0631629Y0010398D01*
X0631490Y0010318D01*
X0631348Y0010242D01*
X0631205Y0010169D01*
X0631060Y0010100D01*
X0630913Y0010034D01*
X0630765Y0009972D01*
X0630615Y0009914D01*
X0630464Y0009859D01*
X0630311Y0009808D01*
X0630157Y0009761D01*
X0630002Y0009718D01*
X0629846Y0009679D01*
X0629690Y0009643D01*
X0629532Y0009612D01*
X0629374Y0009584D01*
X0629215Y0009560D01*
X0629055Y0009540D01*
X0628895Y0009524D01*
X0628735Y0009512D01*
X0628574Y0009504D01*
X0628413Y0009500D01*
X0628253Y0009500D01*
X0628092Y0009504D01*
X0627931Y0009512D01*
X0627771Y0009524D01*
X0627611Y0009540D01*
X0627451Y0009560D01*
X0627292Y0009584D01*
X0627134Y0009612D01*
X0626976Y0009643D01*
X0626820Y0009679D01*
X0626664Y0009718D01*
X0626509Y0009761D01*
X0626355Y0009808D01*
X0626202Y0009859D01*
X0626051Y0009914D01*
X0625901Y0009972D01*
X0625753Y0010034D01*
X0625606Y0010100D01*
X0625461Y0010169D01*
X0625318Y0010242D01*
X0625176Y0010318D01*
X0625037Y0010398D01*
X0624899Y0010481D01*
X0624764Y0010568D01*
X0624630Y0010658D01*
X0624499Y0010751D01*
X0624371Y0010847D01*
X0624245Y0010947D01*
X0624121Y0011050D01*
X0624000Y0011155D01*
X0623881Y0011264D01*
X0623765Y0011375D01*
X0623652Y0011490D01*
X0623542Y0011607D01*
X0623435Y0011727D01*
X0623331Y0011849D01*
X0623230Y0011974D01*
X0623132Y0012102D01*
X0623037Y0012232D01*
X0622945Y0012364D01*
X0622857Y0012498D01*
X0622772Y0012635D01*
X0622690Y0012773D01*
X0622612Y0012914D01*
X0622538Y0013056D01*
X0622467Y0013200D01*
X0622399Y0013346D01*
X0622336Y0013494D01*
X0622275Y0013643D01*
X0622219Y0013794D01*
X0622166Y0013946D01*
X0622117Y0014099D01*
X0622072Y0014253D01*
X0622031Y0014408D01*
X0621993Y0014565D01*
X0621960Y0014722D01*
X0621930Y0014880D01*
X0621904Y0015039D01*
X0621883Y0015198D01*
X0621865Y0015358D01*
X0621851Y0015518D01*
X0621841Y0015679D01*
X0621835Y0015839D01*
X0621833Y0016000D01*
X0621833Y0101000D02*
X0621835Y0101161D01*
X0621841Y0101321D01*
X0621851Y0101482D01*
X0621865Y0101642D01*
X0621883Y0101802D01*
X0621904Y0101961D01*
X0621930Y0102120D01*
X0621960Y0102278D01*
X0621993Y0102435D01*
X0622031Y0102592D01*
X0622072Y0102747D01*
X0622117Y0102901D01*
X0622166Y0103054D01*
X0622219Y0103206D01*
X0622275Y0103357D01*
X0622336Y0103506D01*
X0622399Y0103654D01*
X0622467Y0103800D01*
X0622538Y0103944D01*
X0622612Y0104086D01*
X0622690Y0104227D01*
X0622772Y0104365D01*
X0622857Y0104502D01*
X0622945Y0104636D01*
X0623037Y0104768D01*
X0623132Y0104898D01*
X0623230Y0105026D01*
X0623331Y0105151D01*
X0623435Y0105273D01*
X0623542Y0105393D01*
X0623652Y0105510D01*
X0623765Y0105625D01*
X0623881Y0105736D01*
X0624000Y0105845D01*
X0624121Y0105950D01*
X0624245Y0106053D01*
X0624371Y0106153D01*
X0624499Y0106249D01*
X0624630Y0106342D01*
X0624764Y0106432D01*
X0624899Y0106519D01*
X0625037Y0106602D01*
X0625176Y0106682D01*
X0625318Y0106758D01*
X0625461Y0106831D01*
X0625606Y0106900D01*
X0625753Y0106966D01*
X0625901Y0107028D01*
X0626051Y0107086D01*
X0626202Y0107141D01*
X0626355Y0107192D01*
X0626509Y0107239D01*
X0626664Y0107282D01*
X0626820Y0107321D01*
X0626976Y0107357D01*
X0627134Y0107388D01*
X0627292Y0107416D01*
X0627451Y0107440D01*
X0627611Y0107460D01*
X0627771Y0107476D01*
X0627931Y0107488D01*
X0628092Y0107496D01*
X0628253Y0107500D01*
X0628413Y0107500D01*
X0628574Y0107496D01*
X0628735Y0107488D01*
X0628895Y0107476D01*
X0629055Y0107460D01*
X0629215Y0107440D01*
X0629374Y0107416D01*
X0629532Y0107388D01*
X0629690Y0107357D01*
X0629846Y0107321D01*
X0630002Y0107282D01*
X0630157Y0107239D01*
X0630311Y0107192D01*
X0630464Y0107141D01*
X0630615Y0107086D01*
X0630765Y0107028D01*
X0630913Y0106966D01*
X0631060Y0106900D01*
X0631205Y0106831D01*
X0631348Y0106758D01*
X0631490Y0106682D01*
X0631629Y0106602D01*
X0631767Y0106519D01*
X0631902Y0106432D01*
X0632036Y0106342D01*
X0632167Y0106249D01*
X0632295Y0106153D01*
X0632421Y0106053D01*
X0632545Y0105950D01*
X0632666Y0105845D01*
X0632785Y0105736D01*
X0632901Y0105625D01*
X0633014Y0105510D01*
X0633124Y0105393D01*
X0633231Y0105273D01*
X0633335Y0105151D01*
X0633436Y0105026D01*
X0633534Y0104898D01*
X0633629Y0104768D01*
X0633721Y0104636D01*
X0633809Y0104502D01*
X0633894Y0104365D01*
X0633976Y0104227D01*
X0634054Y0104086D01*
X0634128Y0103944D01*
X0634199Y0103800D01*
X0634267Y0103654D01*
X0634330Y0103506D01*
X0634391Y0103357D01*
X0634447Y0103206D01*
X0634500Y0103054D01*
X0634549Y0102901D01*
X0634594Y0102747D01*
X0634635Y0102592D01*
X0634673Y0102435D01*
X0634706Y0102278D01*
X0634736Y0102120D01*
X0634762Y0101961D01*
X0634783Y0101802D01*
X0634801Y0101642D01*
X0634815Y0101482D01*
X0634825Y0101321D01*
X0634831Y0101161D01*
X0634833Y0101000D01*
X0634831Y0100839D01*
X0634825Y0100679D01*
X0634815Y0100518D01*
X0634801Y0100358D01*
X0634783Y0100198D01*
X0634762Y0100039D01*
X0634736Y0099880D01*
X0634706Y0099722D01*
X0634673Y0099565D01*
X0634635Y0099408D01*
X0634594Y0099253D01*
X0634549Y0099099D01*
X0634500Y0098946D01*
X0634447Y0098794D01*
X0634391Y0098643D01*
X0634330Y0098494D01*
X0634267Y0098346D01*
X0634199Y0098200D01*
X0634128Y0098056D01*
X0634054Y0097914D01*
X0633976Y0097773D01*
X0633894Y0097635D01*
X0633809Y0097498D01*
X0633721Y0097364D01*
X0633629Y0097232D01*
X0633534Y0097102D01*
X0633436Y0096974D01*
X0633335Y0096849D01*
X0633231Y0096727D01*
X0633124Y0096607D01*
X0633014Y0096490D01*
X0632901Y0096375D01*
X0632785Y0096264D01*
X0632666Y0096155D01*
X0632545Y0096050D01*
X0632421Y0095947D01*
X0632295Y0095847D01*
X0632167Y0095751D01*
X0632036Y0095658D01*
X0631902Y0095568D01*
X0631767Y0095481D01*
X0631629Y0095398D01*
X0631490Y0095318D01*
X0631348Y0095242D01*
X0631205Y0095169D01*
X0631060Y0095100D01*
X0630913Y0095034D01*
X0630765Y0094972D01*
X0630615Y0094914D01*
X0630464Y0094859D01*
X0630311Y0094808D01*
X0630157Y0094761D01*
X0630002Y0094718D01*
X0629846Y0094679D01*
X0629690Y0094643D01*
X0629532Y0094612D01*
X0629374Y0094584D01*
X0629215Y0094560D01*
X0629055Y0094540D01*
X0628895Y0094524D01*
X0628735Y0094512D01*
X0628574Y0094504D01*
X0628413Y0094500D01*
X0628253Y0094500D01*
X0628092Y0094504D01*
X0627931Y0094512D01*
X0627771Y0094524D01*
X0627611Y0094540D01*
X0627451Y0094560D01*
X0627292Y0094584D01*
X0627134Y0094612D01*
X0626976Y0094643D01*
X0626820Y0094679D01*
X0626664Y0094718D01*
X0626509Y0094761D01*
X0626355Y0094808D01*
X0626202Y0094859D01*
X0626051Y0094914D01*
X0625901Y0094972D01*
X0625753Y0095034D01*
X0625606Y0095100D01*
X0625461Y0095169D01*
X0625318Y0095242D01*
X0625176Y0095318D01*
X0625037Y0095398D01*
X0624899Y0095481D01*
X0624764Y0095568D01*
X0624630Y0095658D01*
X0624499Y0095751D01*
X0624371Y0095847D01*
X0624245Y0095947D01*
X0624121Y0096050D01*
X0624000Y0096155D01*
X0623881Y0096264D01*
X0623765Y0096375D01*
X0623652Y0096490D01*
X0623542Y0096607D01*
X0623435Y0096727D01*
X0623331Y0096849D01*
X0623230Y0096974D01*
X0623132Y0097102D01*
X0623037Y0097232D01*
X0622945Y0097364D01*
X0622857Y0097498D01*
X0622772Y0097635D01*
X0622690Y0097773D01*
X0622612Y0097914D01*
X0622538Y0098056D01*
X0622467Y0098200D01*
X0622399Y0098346D01*
X0622336Y0098494D01*
X0622275Y0098643D01*
X0622219Y0098794D01*
X0622166Y0098946D01*
X0622117Y0099099D01*
X0622072Y0099253D01*
X0622031Y0099408D01*
X0621993Y0099565D01*
X0621960Y0099722D01*
X0621930Y0099880D01*
X0621904Y0100039D01*
X0621883Y0100198D01*
X0621865Y0100358D01*
X0621851Y0100518D01*
X0621841Y0100679D01*
X0621835Y0100839D01*
X0621833Y0101000D01*
X0491833Y0101000D02*
X0491835Y0101161D01*
X0491841Y0101321D01*
X0491851Y0101482D01*
X0491865Y0101642D01*
X0491883Y0101802D01*
X0491904Y0101961D01*
X0491930Y0102120D01*
X0491960Y0102278D01*
X0491993Y0102435D01*
X0492031Y0102592D01*
X0492072Y0102747D01*
X0492117Y0102901D01*
X0492166Y0103054D01*
X0492219Y0103206D01*
X0492275Y0103357D01*
X0492336Y0103506D01*
X0492399Y0103654D01*
X0492467Y0103800D01*
X0492538Y0103944D01*
X0492612Y0104086D01*
X0492690Y0104227D01*
X0492772Y0104365D01*
X0492857Y0104502D01*
X0492945Y0104636D01*
X0493037Y0104768D01*
X0493132Y0104898D01*
X0493230Y0105026D01*
X0493331Y0105151D01*
X0493435Y0105273D01*
X0493542Y0105393D01*
X0493652Y0105510D01*
X0493765Y0105625D01*
X0493881Y0105736D01*
X0494000Y0105845D01*
X0494121Y0105950D01*
X0494245Y0106053D01*
X0494371Y0106153D01*
X0494499Y0106249D01*
X0494630Y0106342D01*
X0494764Y0106432D01*
X0494899Y0106519D01*
X0495037Y0106602D01*
X0495176Y0106682D01*
X0495318Y0106758D01*
X0495461Y0106831D01*
X0495606Y0106900D01*
X0495753Y0106966D01*
X0495901Y0107028D01*
X0496051Y0107086D01*
X0496202Y0107141D01*
X0496355Y0107192D01*
X0496509Y0107239D01*
X0496664Y0107282D01*
X0496820Y0107321D01*
X0496976Y0107357D01*
X0497134Y0107388D01*
X0497292Y0107416D01*
X0497451Y0107440D01*
X0497611Y0107460D01*
X0497771Y0107476D01*
X0497931Y0107488D01*
X0498092Y0107496D01*
X0498253Y0107500D01*
X0498413Y0107500D01*
X0498574Y0107496D01*
X0498735Y0107488D01*
X0498895Y0107476D01*
X0499055Y0107460D01*
X0499215Y0107440D01*
X0499374Y0107416D01*
X0499532Y0107388D01*
X0499690Y0107357D01*
X0499846Y0107321D01*
X0500002Y0107282D01*
X0500157Y0107239D01*
X0500311Y0107192D01*
X0500464Y0107141D01*
X0500615Y0107086D01*
X0500765Y0107028D01*
X0500913Y0106966D01*
X0501060Y0106900D01*
X0501205Y0106831D01*
X0501348Y0106758D01*
X0501490Y0106682D01*
X0501629Y0106602D01*
X0501767Y0106519D01*
X0501902Y0106432D01*
X0502036Y0106342D01*
X0502167Y0106249D01*
X0502295Y0106153D01*
X0502421Y0106053D01*
X0502545Y0105950D01*
X0502666Y0105845D01*
X0502785Y0105736D01*
X0502901Y0105625D01*
X0503014Y0105510D01*
X0503124Y0105393D01*
X0503231Y0105273D01*
X0503335Y0105151D01*
X0503436Y0105026D01*
X0503534Y0104898D01*
X0503629Y0104768D01*
X0503721Y0104636D01*
X0503809Y0104502D01*
X0503894Y0104365D01*
X0503976Y0104227D01*
X0504054Y0104086D01*
X0504128Y0103944D01*
X0504199Y0103800D01*
X0504267Y0103654D01*
X0504330Y0103506D01*
X0504391Y0103357D01*
X0504447Y0103206D01*
X0504500Y0103054D01*
X0504549Y0102901D01*
X0504594Y0102747D01*
X0504635Y0102592D01*
X0504673Y0102435D01*
X0504706Y0102278D01*
X0504736Y0102120D01*
X0504762Y0101961D01*
X0504783Y0101802D01*
X0504801Y0101642D01*
X0504815Y0101482D01*
X0504825Y0101321D01*
X0504831Y0101161D01*
X0504833Y0101000D01*
X0504831Y0100839D01*
X0504825Y0100679D01*
X0504815Y0100518D01*
X0504801Y0100358D01*
X0504783Y0100198D01*
X0504762Y0100039D01*
X0504736Y0099880D01*
X0504706Y0099722D01*
X0504673Y0099565D01*
X0504635Y0099408D01*
X0504594Y0099253D01*
X0504549Y0099099D01*
X0504500Y0098946D01*
X0504447Y0098794D01*
X0504391Y0098643D01*
X0504330Y0098494D01*
X0504267Y0098346D01*
X0504199Y0098200D01*
X0504128Y0098056D01*
X0504054Y0097914D01*
X0503976Y0097773D01*
X0503894Y0097635D01*
X0503809Y0097498D01*
X0503721Y0097364D01*
X0503629Y0097232D01*
X0503534Y0097102D01*
X0503436Y0096974D01*
X0503335Y0096849D01*
X0503231Y0096727D01*
X0503124Y0096607D01*
X0503014Y0096490D01*
X0502901Y0096375D01*
X0502785Y0096264D01*
X0502666Y0096155D01*
X0502545Y0096050D01*
X0502421Y0095947D01*
X0502295Y0095847D01*
X0502167Y0095751D01*
X0502036Y0095658D01*
X0501902Y0095568D01*
X0501767Y0095481D01*
X0501629Y0095398D01*
X0501490Y0095318D01*
X0501348Y0095242D01*
X0501205Y0095169D01*
X0501060Y0095100D01*
X0500913Y0095034D01*
X0500765Y0094972D01*
X0500615Y0094914D01*
X0500464Y0094859D01*
X0500311Y0094808D01*
X0500157Y0094761D01*
X0500002Y0094718D01*
X0499846Y0094679D01*
X0499690Y0094643D01*
X0499532Y0094612D01*
X0499374Y0094584D01*
X0499215Y0094560D01*
X0499055Y0094540D01*
X0498895Y0094524D01*
X0498735Y0094512D01*
X0498574Y0094504D01*
X0498413Y0094500D01*
X0498253Y0094500D01*
X0498092Y0094504D01*
X0497931Y0094512D01*
X0497771Y0094524D01*
X0497611Y0094540D01*
X0497451Y0094560D01*
X0497292Y0094584D01*
X0497134Y0094612D01*
X0496976Y0094643D01*
X0496820Y0094679D01*
X0496664Y0094718D01*
X0496509Y0094761D01*
X0496355Y0094808D01*
X0496202Y0094859D01*
X0496051Y0094914D01*
X0495901Y0094972D01*
X0495753Y0095034D01*
X0495606Y0095100D01*
X0495461Y0095169D01*
X0495318Y0095242D01*
X0495176Y0095318D01*
X0495037Y0095398D01*
X0494899Y0095481D01*
X0494764Y0095568D01*
X0494630Y0095658D01*
X0494499Y0095751D01*
X0494371Y0095847D01*
X0494245Y0095947D01*
X0494121Y0096050D01*
X0494000Y0096155D01*
X0493881Y0096264D01*
X0493765Y0096375D01*
X0493652Y0096490D01*
X0493542Y0096607D01*
X0493435Y0096727D01*
X0493331Y0096849D01*
X0493230Y0096974D01*
X0493132Y0097102D01*
X0493037Y0097232D01*
X0492945Y0097364D01*
X0492857Y0097498D01*
X0492772Y0097635D01*
X0492690Y0097773D01*
X0492612Y0097914D01*
X0492538Y0098056D01*
X0492467Y0098200D01*
X0492399Y0098346D01*
X0492336Y0098494D01*
X0492275Y0098643D01*
X0492219Y0098794D01*
X0492166Y0098946D01*
X0492117Y0099099D01*
X0492072Y0099253D01*
X0492031Y0099408D01*
X0491993Y0099565D01*
X0491960Y0099722D01*
X0491930Y0099880D01*
X0491904Y0100039D01*
X0491883Y0100198D01*
X0491865Y0100358D01*
X0491851Y0100518D01*
X0491841Y0100679D01*
X0491835Y0100839D01*
X0491833Y0101000D01*
D11*
X0518333Y0096500D03*
X0528333Y0095500D03*
X0538333Y0096500D03*
X0549833Y0101500D03*
X0559833Y0100500D03*
X0569833Y0101500D03*
X0579833Y0100500D03*
X0589833Y0101500D03*
X0593333Y0086500D03*
X0603333Y0085500D03*
X0613333Y0086500D03*
X0583333Y0085500D03*
X0573333Y0086500D03*
X0538333Y0081500D03*
X0528333Y0080500D03*
X0518333Y0081500D03*
X0508833Y0071000D03*
X0493833Y0071000D03*
X0492833Y0061000D03*
X0507833Y0061000D03*
X0508833Y0051000D03*
X0493833Y0051000D03*
X0608333Y0051500D03*
X0618333Y0050500D03*
X0628333Y0051500D03*
X0628333Y0066500D03*
X0618333Y0065500D03*
X0608333Y0066500D03*
X0608333Y0036500D03*
X0618333Y0035500D03*
X0628333Y0036500D03*
X0588333Y0011500D03*
X0578333Y0010500D03*
X0553333Y0011500D03*
X0543333Y0010500D03*
X0533333Y0011500D03*
X0598333Y0010500D03*
D12*
X0563333Y0010500D03*
D13*
X0563333Y0028400D02*
X0563333Y0033600D01*
X0553333Y0033600D02*
X0553333Y0028400D01*
X0543333Y0028400D02*
X0543333Y0033600D01*
X0533333Y0033600D02*
X0533333Y0028400D01*
X0523333Y0028400D02*
X0523333Y0033600D01*
X0573333Y0033600D02*
X0573333Y0028400D01*
X0583333Y0028400D02*
X0583333Y0033600D01*
X0593333Y0033600D02*
X0593333Y0028400D01*
X0593333Y0058400D02*
X0593333Y0063600D01*
X0583333Y0063600D02*
X0583333Y0058400D01*
X0573333Y0058400D02*
X0573333Y0063600D01*
X0563333Y0063600D02*
X0563333Y0058400D01*
X0553333Y0058400D02*
X0553333Y0063600D01*
X0543333Y0063600D02*
X0543333Y0058400D01*
X0533333Y0058400D02*
X0533333Y0063600D01*
X0523333Y0063600D02*
X0523333Y0058400D01*
D14*
X0509345Y0038500D03*
X0498322Y0038500D03*
D15*
X0498322Y0036012D01*
X0513333Y0021000D01*
X0566333Y0021000D01*
X0570833Y0016500D01*
X0570833Y0008000D01*
X0574833Y0005500D01*
X0580833Y0005500D01*
X0588333Y0011500D01*
X0588333Y0016000D01*
X0593333Y0021000D01*
X0593333Y0031000D01*
X0583333Y0031000D01*
X0573333Y0031000D02*
X0573333Y0041000D01*
X0578333Y0046000D01*
X0578333Y0099000D01*
X0579833Y0100500D01*
X0586333Y0094000D01*
X0600333Y0094000D01*
X0603333Y0091000D01*
X0603333Y0085500D01*
X0603333Y0076000D01*
X0618333Y0076000D01*
X0627833Y0066500D01*
X0628333Y0066500D01*
X0628333Y0051500D01*
X0628333Y0036500D01*
X0618333Y0035500D02*
X0618333Y0050500D01*
X0618333Y0065500D01*
X0608333Y0066500D02*
X0608333Y0051500D01*
X0608333Y0036500D01*
X0608333Y0016000D01*
X0602833Y0010500D01*
X0598333Y0010500D01*
X0578333Y0010500D02*
X0578333Y0016000D01*
X0570333Y0024000D01*
X0518333Y0024000D01*
X0509345Y0032988D01*
X0509345Y0038500D01*
X0509345Y0050488D01*
X0508833Y0051000D01*
X0515833Y0058000D01*
X0515833Y0063500D01*
X0528333Y0076000D01*
X0528333Y0080500D01*
X0528333Y0095500D01*
X0538333Y0096500D02*
X0541333Y0096500D01*
X0546333Y0091500D01*
X0546333Y0076500D01*
X0543333Y0073500D01*
X0535833Y0073500D01*
X0533333Y0071000D01*
X0533333Y0061000D01*
X0523333Y0061000D02*
X0523333Y0066500D01*
X0538333Y0081500D01*
X0518333Y0081500D02*
X0518333Y0071500D01*
X0507833Y0061000D01*
X0492833Y0061000D01*
X0493833Y0071000D02*
X0508833Y0071000D01*
X0543333Y0061000D02*
X0549833Y0067500D01*
X0549833Y0101500D01*
X0559833Y0100500D02*
X0559833Y0067500D01*
X0553333Y0061000D01*
X0563333Y0061000D02*
X0563333Y0091000D01*
X0569833Y0097500D01*
X0569833Y0101500D01*
X0580333Y0111000D02*
X0589833Y0101500D01*
X0590333Y0101000D01*
X0608333Y0101000D01*
X0613333Y0096000D01*
X0613333Y0086500D01*
X0593333Y0086500D02*
X0593333Y0061000D01*
X0583333Y0061000D02*
X0583333Y0085500D01*
X0573333Y0086500D02*
X0573333Y0061000D01*
X0508833Y0051000D02*
X0508333Y0050500D01*
X0508833Y0051000D02*
X0493833Y0051000D01*
X0523333Y0036000D02*
X0528333Y0041000D01*
X0563333Y0041000D01*
X0573333Y0031000D01*
X0523333Y0031000D02*
X0523333Y0036000D01*
X0518333Y0081500D02*
X0518333Y0096500D01*
X0518333Y0106000D01*
X0523333Y0111000D01*
X0580333Y0111000D01*
M02*
