G75*
%MOIN*%
%OFA0B0*%
%FSLAX25Y25*%
%IPPOS*%
%LPD*%
%AMOC8*
5,1,8,0,0,1.08239X$1,22.5*
%
%ADD10C,0.00000*%
%ADD11C,0.07400*%
%ADD12R,0.07400X0.07400*%
%ADD13R,0.07087X0.06299*%
%ADD14R,0.06299X0.07087*%
%ADD15C,0.05200*%
%ADD16C,0.01000*%
%ADD17C,0.04356*%
D10*
X0483333Y0001000D02*
X0483333Y0115961D01*
X0637034Y0115961D01*
X0637034Y0001000D01*
X0483333Y0001000D01*
X0491833Y0016000D02*
X0491835Y0016161D01*
X0491841Y0016321D01*
X0491851Y0016482D01*
X0491865Y0016642D01*
X0491883Y0016802D01*
X0491904Y0016961D01*
X0491930Y0017120D01*
X0491960Y0017278D01*
X0491993Y0017435D01*
X0492031Y0017592D01*
X0492072Y0017747D01*
X0492117Y0017901D01*
X0492166Y0018054D01*
X0492219Y0018206D01*
X0492275Y0018357D01*
X0492336Y0018506D01*
X0492399Y0018654D01*
X0492467Y0018800D01*
X0492538Y0018944D01*
X0492612Y0019086D01*
X0492690Y0019227D01*
X0492772Y0019365D01*
X0492857Y0019502D01*
X0492945Y0019636D01*
X0493037Y0019768D01*
X0493132Y0019898D01*
X0493230Y0020026D01*
X0493331Y0020151D01*
X0493435Y0020273D01*
X0493542Y0020393D01*
X0493652Y0020510D01*
X0493765Y0020625D01*
X0493881Y0020736D01*
X0494000Y0020845D01*
X0494121Y0020950D01*
X0494245Y0021053D01*
X0494371Y0021153D01*
X0494499Y0021249D01*
X0494630Y0021342D01*
X0494764Y0021432D01*
X0494899Y0021519D01*
X0495037Y0021602D01*
X0495176Y0021682D01*
X0495318Y0021758D01*
X0495461Y0021831D01*
X0495606Y0021900D01*
X0495753Y0021966D01*
X0495901Y0022028D01*
X0496051Y0022086D01*
X0496202Y0022141D01*
X0496355Y0022192D01*
X0496509Y0022239D01*
X0496664Y0022282D01*
X0496820Y0022321D01*
X0496976Y0022357D01*
X0497134Y0022388D01*
X0497292Y0022416D01*
X0497451Y0022440D01*
X0497611Y0022460D01*
X0497771Y0022476D01*
X0497931Y0022488D01*
X0498092Y0022496D01*
X0498253Y0022500D01*
X0498413Y0022500D01*
X0498574Y0022496D01*
X0498735Y0022488D01*
X0498895Y0022476D01*
X0499055Y0022460D01*
X0499215Y0022440D01*
X0499374Y0022416D01*
X0499532Y0022388D01*
X0499690Y0022357D01*
X0499846Y0022321D01*
X0500002Y0022282D01*
X0500157Y0022239D01*
X0500311Y0022192D01*
X0500464Y0022141D01*
X0500615Y0022086D01*
X0500765Y0022028D01*
X0500913Y0021966D01*
X0501060Y0021900D01*
X0501205Y0021831D01*
X0501348Y0021758D01*
X0501490Y0021682D01*
X0501629Y0021602D01*
X0501767Y0021519D01*
X0501902Y0021432D01*
X0502036Y0021342D01*
X0502167Y0021249D01*
X0502295Y0021153D01*
X0502421Y0021053D01*
X0502545Y0020950D01*
X0502666Y0020845D01*
X0502785Y0020736D01*
X0502901Y0020625D01*
X0503014Y0020510D01*
X0503124Y0020393D01*
X0503231Y0020273D01*
X0503335Y0020151D01*
X0503436Y0020026D01*
X0503534Y0019898D01*
X0503629Y0019768D01*
X0503721Y0019636D01*
X0503809Y0019502D01*
X0503894Y0019365D01*
X0503976Y0019227D01*
X0504054Y0019086D01*
X0504128Y0018944D01*
X0504199Y0018800D01*
X0504267Y0018654D01*
X0504330Y0018506D01*
X0504391Y0018357D01*
X0504447Y0018206D01*
X0504500Y0018054D01*
X0504549Y0017901D01*
X0504594Y0017747D01*
X0504635Y0017592D01*
X0504673Y0017435D01*
X0504706Y0017278D01*
X0504736Y0017120D01*
X0504762Y0016961D01*
X0504783Y0016802D01*
X0504801Y0016642D01*
X0504815Y0016482D01*
X0504825Y0016321D01*
X0504831Y0016161D01*
X0504833Y0016000D01*
X0504831Y0015839D01*
X0504825Y0015679D01*
X0504815Y0015518D01*
X0504801Y0015358D01*
X0504783Y0015198D01*
X0504762Y0015039D01*
X0504736Y0014880D01*
X0504706Y0014722D01*
X0504673Y0014565D01*
X0504635Y0014408D01*
X0504594Y0014253D01*
X0504549Y0014099D01*
X0504500Y0013946D01*
X0504447Y0013794D01*
X0504391Y0013643D01*
X0504330Y0013494D01*
X0504267Y0013346D01*
X0504199Y0013200D01*
X0504128Y0013056D01*
X0504054Y0012914D01*
X0503976Y0012773D01*
X0503894Y0012635D01*
X0503809Y0012498D01*
X0503721Y0012364D01*
X0503629Y0012232D01*
X0503534Y0012102D01*
X0503436Y0011974D01*
X0503335Y0011849D01*
X0503231Y0011727D01*
X0503124Y0011607D01*
X0503014Y0011490D01*
X0502901Y0011375D01*
X0502785Y0011264D01*
X0502666Y0011155D01*
X0502545Y0011050D01*
X0502421Y0010947D01*
X0502295Y0010847D01*
X0502167Y0010751D01*
X0502036Y0010658D01*
X0501902Y0010568D01*
X0501767Y0010481D01*
X0501629Y0010398D01*
X0501490Y0010318D01*
X0501348Y0010242D01*
X0501205Y0010169D01*
X0501060Y0010100D01*
X0500913Y0010034D01*
X0500765Y0009972D01*
X0500615Y0009914D01*
X0500464Y0009859D01*
X0500311Y0009808D01*
X0500157Y0009761D01*
X0500002Y0009718D01*
X0499846Y0009679D01*
X0499690Y0009643D01*
X0499532Y0009612D01*
X0499374Y0009584D01*
X0499215Y0009560D01*
X0499055Y0009540D01*
X0498895Y0009524D01*
X0498735Y0009512D01*
X0498574Y0009504D01*
X0498413Y0009500D01*
X0498253Y0009500D01*
X0498092Y0009504D01*
X0497931Y0009512D01*
X0497771Y0009524D01*
X0497611Y0009540D01*
X0497451Y0009560D01*
X0497292Y0009584D01*
X0497134Y0009612D01*
X0496976Y0009643D01*
X0496820Y0009679D01*
X0496664Y0009718D01*
X0496509Y0009761D01*
X0496355Y0009808D01*
X0496202Y0009859D01*
X0496051Y0009914D01*
X0495901Y0009972D01*
X0495753Y0010034D01*
X0495606Y0010100D01*
X0495461Y0010169D01*
X0495318Y0010242D01*
X0495176Y0010318D01*
X0495037Y0010398D01*
X0494899Y0010481D01*
X0494764Y0010568D01*
X0494630Y0010658D01*
X0494499Y0010751D01*
X0494371Y0010847D01*
X0494245Y0010947D01*
X0494121Y0011050D01*
X0494000Y0011155D01*
X0493881Y0011264D01*
X0493765Y0011375D01*
X0493652Y0011490D01*
X0493542Y0011607D01*
X0493435Y0011727D01*
X0493331Y0011849D01*
X0493230Y0011974D01*
X0493132Y0012102D01*
X0493037Y0012232D01*
X0492945Y0012364D01*
X0492857Y0012498D01*
X0492772Y0012635D01*
X0492690Y0012773D01*
X0492612Y0012914D01*
X0492538Y0013056D01*
X0492467Y0013200D01*
X0492399Y0013346D01*
X0492336Y0013494D01*
X0492275Y0013643D01*
X0492219Y0013794D01*
X0492166Y0013946D01*
X0492117Y0014099D01*
X0492072Y0014253D01*
X0492031Y0014408D01*
X0491993Y0014565D01*
X0491960Y0014722D01*
X0491930Y0014880D01*
X0491904Y0015039D01*
X0491883Y0015198D01*
X0491865Y0015358D01*
X0491851Y0015518D01*
X0491841Y0015679D01*
X0491835Y0015839D01*
X0491833Y0016000D01*
X0611833Y0016000D02*
X0611835Y0016161D01*
X0611841Y0016321D01*
X0611851Y0016482D01*
X0611865Y0016642D01*
X0611883Y0016802D01*
X0611904Y0016961D01*
X0611930Y0017120D01*
X0611960Y0017278D01*
X0611993Y0017435D01*
X0612031Y0017592D01*
X0612072Y0017747D01*
X0612117Y0017901D01*
X0612166Y0018054D01*
X0612219Y0018206D01*
X0612275Y0018357D01*
X0612336Y0018506D01*
X0612399Y0018654D01*
X0612467Y0018800D01*
X0612538Y0018944D01*
X0612612Y0019086D01*
X0612690Y0019227D01*
X0612772Y0019365D01*
X0612857Y0019502D01*
X0612945Y0019636D01*
X0613037Y0019768D01*
X0613132Y0019898D01*
X0613230Y0020026D01*
X0613331Y0020151D01*
X0613435Y0020273D01*
X0613542Y0020393D01*
X0613652Y0020510D01*
X0613765Y0020625D01*
X0613881Y0020736D01*
X0614000Y0020845D01*
X0614121Y0020950D01*
X0614245Y0021053D01*
X0614371Y0021153D01*
X0614499Y0021249D01*
X0614630Y0021342D01*
X0614764Y0021432D01*
X0614899Y0021519D01*
X0615037Y0021602D01*
X0615176Y0021682D01*
X0615318Y0021758D01*
X0615461Y0021831D01*
X0615606Y0021900D01*
X0615753Y0021966D01*
X0615901Y0022028D01*
X0616051Y0022086D01*
X0616202Y0022141D01*
X0616355Y0022192D01*
X0616509Y0022239D01*
X0616664Y0022282D01*
X0616820Y0022321D01*
X0616976Y0022357D01*
X0617134Y0022388D01*
X0617292Y0022416D01*
X0617451Y0022440D01*
X0617611Y0022460D01*
X0617771Y0022476D01*
X0617931Y0022488D01*
X0618092Y0022496D01*
X0618253Y0022500D01*
X0618413Y0022500D01*
X0618574Y0022496D01*
X0618735Y0022488D01*
X0618895Y0022476D01*
X0619055Y0022460D01*
X0619215Y0022440D01*
X0619374Y0022416D01*
X0619532Y0022388D01*
X0619690Y0022357D01*
X0619846Y0022321D01*
X0620002Y0022282D01*
X0620157Y0022239D01*
X0620311Y0022192D01*
X0620464Y0022141D01*
X0620615Y0022086D01*
X0620765Y0022028D01*
X0620913Y0021966D01*
X0621060Y0021900D01*
X0621205Y0021831D01*
X0621348Y0021758D01*
X0621490Y0021682D01*
X0621629Y0021602D01*
X0621767Y0021519D01*
X0621902Y0021432D01*
X0622036Y0021342D01*
X0622167Y0021249D01*
X0622295Y0021153D01*
X0622421Y0021053D01*
X0622545Y0020950D01*
X0622666Y0020845D01*
X0622785Y0020736D01*
X0622901Y0020625D01*
X0623014Y0020510D01*
X0623124Y0020393D01*
X0623231Y0020273D01*
X0623335Y0020151D01*
X0623436Y0020026D01*
X0623534Y0019898D01*
X0623629Y0019768D01*
X0623721Y0019636D01*
X0623809Y0019502D01*
X0623894Y0019365D01*
X0623976Y0019227D01*
X0624054Y0019086D01*
X0624128Y0018944D01*
X0624199Y0018800D01*
X0624267Y0018654D01*
X0624330Y0018506D01*
X0624391Y0018357D01*
X0624447Y0018206D01*
X0624500Y0018054D01*
X0624549Y0017901D01*
X0624594Y0017747D01*
X0624635Y0017592D01*
X0624673Y0017435D01*
X0624706Y0017278D01*
X0624736Y0017120D01*
X0624762Y0016961D01*
X0624783Y0016802D01*
X0624801Y0016642D01*
X0624815Y0016482D01*
X0624825Y0016321D01*
X0624831Y0016161D01*
X0624833Y0016000D01*
X0624831Y0015839D01*
X0624825Y0015679D01*
X0624815Y0015518D01*
X0624801Y0015358D01*
X0624783Y0015198D01*
X0624762Y0015039D01*
X0624736Y0014880D01*
X0624706Y0014722D01*
X0624673Y0014565D01*
X0624635Y0014408D01*
X0624594Y0014253D01*
X0624549Y0014099D01*
X0624500Y0013946D01*
X0624447Y0013794D01*
X0624391Y0013643D01*
X0624330Y0013494D01*
X0624267Y0013346D01*
X0624199Y0013200D01*
X0624128Y0013056D01*
X0624054Y0012914D01*
X0623976Y0012773D01*
X0623894Y0012635D01*
X0623809Y0012498D01*
X0623721Y0012364D01*
X0623629Y0012232D01*
X0623534Y0012102D01*
X0623436Y0011974D01*
X0623335Y0011849D01*
X0623231Y0011727D01*
X0623124Y0011607D01*
X0623014Y0011490D01*
X0622901Y0011375D01*
X0622785Y0011264D01*
X0622666Y0011155D01*
X0622545Y0011050D01*
X0622421Y0010947D01*
X0622295Y0010847D01*
X0622167Y0010751D01*
X0622036Y0010658D01*
X0621902Y0010568D01*
X0621767Y0010481D01*
X0621629Y0010398D01*
X0621490Y0010318D01*
X0621348Y0010242D01*
X0621205Y0010169D01*
X0621060Y0010100D01*
X0620913Y0010034D01*
X0620765Y0009972D01*
X0620615Y0009914D01*
X0620464Y0009859D01*
X0620311Y0009808D01*
X0620157Y0009761D01*
X0620002Y0009718D01*
X0619846Y0009679D01*
X0619690Y0009643D01*
X0619532Y0009612D01*
X0619374Y0009584D01*
X0619215Y0009560D01*
X0619055Y0009540D01*
X0618895Y0009524D01*
X0618735Y0009512D01*
X0618574Y0009504D01*
X0618413Y0009500D01*
X0618253Y0009500D01*
X0618092Y0009504D01*
X0617931Y0009512D01*
X0617771Y0009524D01*
X0617611Y0009540D01*
X0617451Y0009560D01*
X0617292Y0009584D01*
X0617134Y0009612D01*
X0616976Y0009643D01*
X0616820Y0009679D01*
X0616664Y0009718D01*
X0616509Y0009761D01*
X0616355Y0009808D01*
X0616202Y0009859D01*
X0616051Y0009914D01*
X0615901Y0009972D01*
X0615753Y0010034D01*
X0615606Y0010100D01*
X0615461Y0010169D01*
X0615318Y0010242D01*
X0615176Y0010318D01*
X0615037Y0010398D01*
X0614899Y0010481D01*
X0614764Y0010568D01*
X0614630Y0010658D01*
X0614499Y0010751D01*
X0614371Y0010847D01*
X0614245Y0010947D01*
X0614121Y0011050D01*
X0614000Y0011155D01*
X0613881Y0011264D01*
X0613765Y0011375D01*
X0613652Y0011490D01*
X0613542Y0011607D01*
X0613435Y0011727D01*
X0613331Y0011849D01*
X0613230Y0011974D01*
X0613132Y0012102D01*
X0613037Y0012232D01*
X0612945Y0012364D01*
X0612857Y0012498D01*
X0612772Y0012635D01*
X0612690Y0012773D01*
X0612612Y0012914D01*
X0612538Y0013056D01*
X0612467Y0013200D01*
X0612399Y0013346D01*
X0612336Y0013494D01*
X0612275Y0013643D01*
X0612219Y0013794D01*
X0612166Y0013946D01*
X0612117Y0014099D01*
X0612072Y0014253D01*
X0612031Y0014408D01*
X0611993Y0014565D01*
X0611960Y0014722D01*
X0611930Y0014880D01*
X0611904Y0015039D01*
X0611883Y0015198D01*
X0611865Y0015358D01*
X0611851Y0015518D01*
X0611841Y0015679D01*
X0611835Y0015839D01*
X0611833Y0016000D01*
X0611833Y0101000D02*
X0611835Y0101161D01*
X0611841Y0101321D01*
X0611851Y0101482D01*
X0611865Y0101642D01*
X0611883Y0101802D01*
X0611904Y0101961D01*
X0611930Y0102120D01*
X0611960Y0102278D01*
X0611993Y0102435D01*
X0612031Y0102592D01*
X0612072Y0102747D01*
X0612117Y0102901D01*
X0612166Y0103054D01*
X0612219Y0103206D01*
X0612275Y0103357D01*
X0612336Y0103506D01*
X0612399Y0103654D01*
X0612467Y0103800D01*
X0612538Y0103944D01*
X0612612Y0104086D01*
X0612690Y0104227D01*
X0612772Y0104365D01*
X0612857Y0104502D01*
X0612945Y0104636D01*
X0613037Y0104768D01*
X0613132Y0104898D01*
X0613230Y0105026D01*
X0613331Y0105151D01*
X0613435Y0105273D01*
X0613542Y0105393D01*
X0613652Y0105510D01*
X0613765Y0105625D01*
X0613881Y0105736D01*
X0614000Y0105845D01*
X0614121Y0105950D01*
X0614245Y0106053D01*
X0614371Y0106153D01*
X0614499Y0106249D01*
X0614630Y0106342D01*
X0614764Y0106432D01*
X0614899Y0106519D01*
X0615037Y0106602D01*
X0615176Y0106682D01*
X0615318Y0106758D01*
X0615461Y0106831D01*
X0615606Y0106900D01*
X0615753Y0106966D01*
X0615901Y0107028D01*
X0616051Y0107086D01*
X0616202Y0107141D01*
X0616355Y0107192D01*
X0616509Y0107239D01*
X0616664Y0107282D01*
X0616820Y0107321D01*
X0616976Y0107357D01*
X0617134Y0107388D01*
X0617292Y0107416D01*
X0617451Y0107440D01*
X0617611Y0107460D01*
X0617771Y0107476D01*
X0617931Y0107488D01*
X0618092Y0107496D01*
X0618253Y0107500D01*
X0618413Y0107500D01*
X0618574Y0107496D01*
X0618735Y0107488D01*
X0618895Y0107476D01*
X0619055Y0107460D01*
X0619215Y0107440D01*
X0619374Y0107416D01*
X0619532Y0107388D01*
X0619690Y0107357D01*
X0619846Y0107321D01*
X0620002Y0107282D01*
X0620157Y0107239D01*
X0620311Y0107192D01*
X0620464Y0107141D01*
X0620615Y0107086D01*
X0620765Y0107028D01*
X0620913Y0106966D01*
X0621060Y0106900D01*
X0621205Y0106831D01*
X0621348Y0106758D01*
X0621490Y0106682D01*
X0621629Y0106602D01*
X0621767Y0106519D01*
X0621902Y0106432D01*
X0622036Y0106342D01*
X0622167Y0106249D01*
X0622295Y0106153D01*
X0622421Y0106053D01*
X0622545Y0105950D01*
X0622666Y0105845D01*
X0622785Y0105736D01*
X0622901Y0105625D01*
X0623014Y0105510D01*
X0623124Y0105393D01*
X0623231Y0105273D01*
X0623335Y0105151D01*
X0623436Y0105026D01*
X0623534Y0104898D01*
X0623629Y0104768D01*
X0623721Y0104636D01*
X0623809Y0104502D01*
X0623894Y0104365D01*
X0623976Y0104227D01*
X0624054Y0104086D01*
X0624128Y0103944D01*
X0624199Y0103800D01*
X0624267Y0103654D01*
X0624330Y0103506D01*
X0624391Y0103357D01*
X0624447Y0103206D01*
X0624500Y0103054D01*
X0624549Y0102901D01*
X0624594Y0102747D01*
X0624635Y0102592D01*
X0624673Y0102435D01*
X0624706Y0102278D01*
X0624736Y0102120D01*
X0624762Y0101961D01*
X0624783Y0101802D01*
X0624801Y0101642D01*
X0624815Y0101482D01*
X0624825Y0101321D01*
X0624831Y0101161D01*
X0624833Y0101000D01*
X0624831Y0100839D01*
X0624825Y0100679D01*
X0624815Y0100518D01*
X0624801Y0100358D01*
X0624783Y0100198D01*
X0624762Y0100039D01*
X0624736Y0099880D01*
X0624706Y0099722D01*
X0624673Y0099565D01*
X0624635Y0099408D01*
X0624594Y0099253D01*
X0624549Y0099099D01*
X0624500Y0098946D01*
X0624447Y0098794D01*
X0624391Y0098643D01*
X0624330Y0098494D01*
X0624267Y0098346D01*
X0624199Y0098200D01*
X0624128Y0098056D01*
X0624054Y0097914D01*
X0623976Y0097773D01*
X0623894Y0097635D01*
X0623809Y0097498D01*
X0623721Y0097364D01*
X0623629Y0097232D01*
X0623534Y0097102D01*
X0623436Y0096974D01*
X0623335Y0096849D01*
X0623231Y0096727D01*
X0623124Y0096607D01*
X0623014Y0096490D01*
X0622901Y0096375D01*
X0622785Y0096264D01*
X0622666Y0096155D01*
X0622545Y0096050D01*
X0622421Y0095947D01*
X0622295Y0095847D01*
X0622167Y0095751D01*
X0622036Y0095658D01*
X0621902Y0095568D01*
X0621767Y0095481D01*
X0621629Y0095398D01*
X0621490Y0095318D01*
X0621348Y0095242D01*
X0621205Y0095169D01*
X0621060Y0095100D01*
X0620913Y0095034D01*
X0620765Y0094972D01*
X0620615Y0094914D01*
X0620464Y0094859D01*
X0620311Y0094808D01*
X0620157Y0094761D01*
X0620002Y0094718D01*
X0619846Y0094679D01*
X0619690Y0094643D01*
X0619532Y0094612D01*
X0619374Y0094584D01*
X0619215Y0094560D01*
X0619055Y0094540D01*
X0618895Y0094524D01*
X0618735Y0094512D01*
X0618574Y0094504D01*
X0618413Y0094500D01*
X0618253Y0094500D01*
X0618092Y0094504D01*
X0617931Y0094512D01*
X0617771Y0094524D01*
X0617611Y0094540D01*
X0617451Y0094560D01*
X0617292Y0094584D01*
X0617134Y0094612D01*
X0616976Y0094643D01*
X0616820Y0094679D01*
X0616664Y0094718D01*
X0616509Y0094761D01*
X0616355Y0094808D01*
X0616202Y0094859D01*
X0616051Y0094914D01*
X0615901Y0094972D01*
X0615753Y0095034D01*
X0615606Y0095100D01*
X0615461Y0095169D01*
X0615318Y0095242D01*
X0615176Y0095318D01*
X0615037Y0095398D01*
X0614899Y0095481D01*
X0614764Y0095568D01*
X0614630Y0095658D01*
X0614499Y0095751D01*
X0614371Y0095847D01*
X0614245Y0095947D01*
X0614121Y0096050D01*
X0614000Y0096155D01*
X0613881Y0096264D01*
X0613765Y0096375D01*
X0613652Y0096490D01*
X0613542Y0096607D01*
X0613435Y0096727D01*
X0613331Y0096849D01*
X0613230Y0096974D01*
X0613132Y0097102D01*
X0613037Y0097232D01*
X0612945Y0097364D01*
X0612857Y0097498D01*
X0612772Y0097635D01*
X0612690Y0097773D01*
X0612612Y0097914D01*
X0612538Y0098056D01*
X0612467Y0098200D01*
X0612399Y0098346D01*
X0612336Y0098494D01*
X0612275Y0098643D01*
X0612219Y0098794D01*
X0612166Y0098946D01*
X0612117Y0099099D01*
X0612072Y0099253D01*
X0612031Y0099408D01*
X0611993Y0099565D01*
X0611960Y0099722D01*
X0611930Y0099880D01*
X0611904Y0100039D01*
X0611883Y0100198D01*
X0611865Y0100358D01*
X0611851Y0100518D01*
X0611841Y0100679D01*
X0611835Y0100839D01*
X0611833Y0101000D01*
X0491833Y0101000D02*
X0491835Y0101161D01*
X0491841Y0101321D01*
X0491851Y0101482D01*
X0491865Y0101642D01*
X0491883Y0101802D01*
X0491904Y0101961D01*
X0491930Y0102120D01*
X0491960Y0102278D01*
X0491993Y0102435D01*
X0492031Y0102592D01*
X0492072Y0102747D01*
X0492117Y0102901D01*
X0492166Y0103054D01*
X0492219Y0103206D01*
X0492275Y0103357D01*
X0492336Y0103506D01*
X0492399Y0103654D01*
X0492467Y0103800D01*
X0492538Y0103944D01*
X0492612Y0104086D01*
X0492690Y0104227D01*
X0492772Y0104365D01*
X0492857Y0104502D01*
X0492945Y0104636D01*
X0493037Y0104768D01*
X0493132Y0104898D01*
X0493230Y0105026D01*
X0493331Y0105151D01*
X0493435Y0105273D01*
X0493542Y0105393D01*
X0493652Y0105510D01*
X0493765Y0105625D01*
X0493881Y0105736D01*
X0494000Y0105845D01*
X0494121Y0105950D01*
X0494245Y0106053D01*
X0494371Y0106153D01*
X0494499Y0106249D01*
X0494630Y0106342D01*
X0494764Y0106432D01*
X0494899Y0106519D01*
X0495037Y0106602D01*
X0495176Y0106682D01*
X0495318Y0106758D01*
X0495461Y0106831D01*
X0495606Y0106900D01*
X0495753Y0106966D01*
X0495901Y0107028D01*
X0496051Y0107086D01*
X0496202Y0107141D01*
X0496355Y0107192D01*
X0496509Y0107239D01*
X0496664Y0107282D01*
X0496820Y0107321D01*
X0496976Y0107357D01*
X0497134Y0107388D01*
X0497292Y0107416D01*
X0497451Y0107440D01*
X0497611Y0107460D01*
X0497771Y0107476D01*
X0497931Y0107488D01*
X0498092Y0107496D01*
X0498253Y0107500D01*
X0498413Y0107500D01*
X0498574Y0107496D01*
X0498735Y0107488D01*
X0498895Y0107476D01*
X0499055Y0107460D01*
X0499215Y0107440D01*
X0499374Y0107416D01*
X0499532Y0107388D01*
X0499690Y0107357D01*
X0499846Y0107321D01*
X0500002Y0107282D01*
X0500157Y0107239D01*
X0500311Y0107192D01*
X0500464Y0107141D01*
X0500615Y0107086D01*
X0500765Y0107028D01*
X0500913Y0106966D01*
X0501060Y0106900D01*
X0501205Y0106831D01*
X0501348Y0106758D01*
X0501490Y0106682D01*
X0501629Y0106602D01*
X0501767Y0106519D01*
X0501902Y0106432D01*
X0502036Y0106342D01*
X0502167Y0106249D01*
X0502295Y0106153D01*
X0502421Y0106053D01*
X0502545Y0105950D01*
X0502666Y0105845D01*
X0502785Y0105736D01*
X0502901Y0105625D01*
X0503014Y0105510D01*
X0503124Y0105393D01*
X0503231Y0105273D01*
X0503335Y0105151D01*
X0503436Y0105026D01*
X0503534Y0104898D01*
X0503629Y0104768D01*
X0503721Y0104636D01*
X0503809Y0104502D01*
X0503894Y0104365D01*
X0503976Y0104227D01*
X0504054Y0104086D01*
X0504128Y0103944D01*
X0504199Y0103800D01*
X0504267Y0103654D01*
X0504330Y0103506D01*
X0504391Y0103357D01*
X0504447Y0103206D01*
X0504500Y0103054D01*
X0504549Y0102901D01*
X0504594Y0102747D01*
X0504635Y0102592D01*
X0504673Y0102435D01*
X0504706Y0102278D01*
X0504736Y0102120D01*
X0504762Y0101961D01*
X0504783Y0101802D01*
X0504801Y0101642D01*
X0504815Y0101482D01*
X0504825Y0101321D01*
X0504831Y0101161D01*
X0504833Y0101000D01*
X0504831Y0100839D01*
X0504825Y0100679D01*
X0504815Y0100518D01*
X0504801Y0100358D01*
X0504783Y0100198D01*
X0504762Y0100039D01*
X0504736Y0099880D01*
X0504706Y0099722D01*
X0504673Y0099565D01*
X0504635Y0099408D01*
X0504594Y0099253D01*
X0504549Y0099099D01*
X0504500Y0098946D01*
X0504447Y0098794D01*
X0504391Y0098643D01*
X0504330Y0098494D01*
X0504267Y0098346D01*
X0504199Y0098200D01*
X0504128Y0098056D01*
X0504054Y0097914D01*
X0503976Y0097773D01*
X0503894Y0097635D01*
X0503809Y0097498D01*
X0503721Y0097364D01*
X0503629Y0097232D01*
X0503534Y0097102D01*
X0503436Y0096974D01*
X0503335Y0096849D01*
X0503231Y0096727D01*
X0503124Y0096607D01*
X0503014Y0096490D01*
X0502901Y0096375D01*
X0502785Y0096264D01*
X0502666Y0096155D01*
X0502545Y0096050D01*
X0502421Y0095947D01*
X0502295Y0095847D01*
X0502167Y0095751D01*
X0502036Y0095658D01*
X0501902Y0095568D01*
X0501767Y0095481D01*
X0501629Y0095398D01*
X0501490Y0095318D01*
X0501348Y0095242D01*
X0501205Y0095169D01*
X0501060Y0095100D01*
X0500913Y0095034D01*
X0500765Y0094972D01*
X0500615Y0094914D01*
X0500464Y0094859D01*
X0500311Y0094808D01*
X0500157Y0094761D01*
X0500002Y0094718D01*
X0499846Y0094679D01*
X0499690Y0094643D01*
X0499532Y0094612D01*
X0499374Y0094584D01*
X0499215Y0094560D01*
X0499055Y0094540D01*
X0498895Y0094524D01*
X0498735Y0094512D01*
X0498574Y0094504D01*
X0498413Y0094500D01*
X0498253Y0094500D01*
X0498092Y0094504D01*
X0497931Y0094512D01*
X0497771Y0094524D01*
X0497611Y0094540D01*
X0497451Y0094560D01*
X0497292Y0094584D01*
X0497134Y0094612D01*
X0496976Y0094643D01*
X0496820Y0094679D01*
X0496664Y0094718D01*
X0496509Y0094761D01*
X0496355Y0094808D01*
X0496202Y0094859D01*
X0496051Y0094914D01*
X0495901Y0094972D01*
X0495753Y0095034D01*
X0495606Y0095100D01*
X0495461Y0095169D01*
X0495318Y0095242D01*
X0495176Y0095318D01*
X0495037Y0095398D01*
X0494899Y0095481D01*
X0494764Y0095568D01*
X0494630Y0095658D01*
X0494499Y0095751D01*
X0494371Y0095847D01*
X0494245Y0095947D01*
X0494121Y0096050D01*
X0494000Y0096155D01*
X0493881Y0096264D01*
X0493765Y0096375D01*
X0493652Y0096490D01*
X0493542Y0096607D01*
X0493435Y0096727D01*
X0493331Y0096849D01*
X0493230Y0096974D01*
X0493132Y0097102D01*
X0493037Y0097232D01*
X0492945Y0097364D01*
X0492857Y0097498D01*
X0492772Y0097635D01*
X0492690Y0097773D01*
X0492612Y0097914D01*
X0492538Y0098056D01*
X0492467Y0098200D01*
X0492399Y0098346D01*
X0492336Y0098494D01*
X0492275Y0098643D01*
X0492219Y0098794D01*
X0492166Y0098946D01*
X0492117Y0099099D01*
X0492072Y0099253D01*
X0492031Y0099408D01*
X0491993Y0099565D01*
X0491960Y0099722D01*
X0491930Y0099880D01*
X0491904Y0100039D01*
X0491883Y0100198D01*
X0491865Y0100358D01*
X0491851Y0100518D01*
X0491841Y0100679D01*
X0491835Y0100839D01*
X0491833Y0101000D01*
D11*
X0522633Y0106000D03*
X0534033Y0106000D03*
X0547633Y0106000D03*
X0559033Y0106000D03*
X0572633Y0106000D03*
X0584033Y0106000D03*
X0598333Y0106700D03*
X0598333Y0095300D03*
X0584033Y0086000D03*
X0572633Y0086000D03*
X0559033Y0086000D03*
X0547633Y0086000D03*
X0534033Y0086000D03*
X0522633Y0086000D03*
X0618333Y0076700D03*
X0618333Y0065300D03*
X0588333Y0011500D03*
X0598333Y0010500D03*
X0578333Y0010500D03*
X0548333Y0011500D03*
X0538333Y0010500D03*
X0528333Y0011500D03*
D12*
X0558333Y0010500D03*
D13*
X0503333Y0035488D03*
X0503333Y0046512D03*
X0493333Y0050488D03*
X0493333Y0061512D03*
X0503333Y0070488D03*
X0503333Y0081512D03*
X0603333Y0051512D03*
X0623333Y0051512D03*
X0623333Y0040488D03*
X0603333Y0040488D03*
D14*
X0588845Y0071000D03*
X0577822Y0071000D03*
X0568845Y0071000D03*
X0557822Y0071000D03*
X0548845Y0071000D03*
X0537822Y0071000D03*
X0528845Y0071000D03*
X0517822Y0071000D03*
D15*
X0518333Y0058600D02*
X0518333Y0053400D01*
X0528333Y0053400D02*
X0528333Y0058600D01*
X0538333Y0058600D02*
X0538333Y0053400D01*
X0548333Y0053400D02*
X0548333Y0058600D01*
X0558333Y0058600D02*
X0558333Y0053400D01*
X0568333Y0053400D02*
X0568333Y0058600D01*
X0578333Y0058600D02*
X0578333Y0053400D01*
X0588333Y0053400D02*
X0588333Y0058600D01*
X0588333Y0028600D02*
X0588333Y0023400D01*
X0578333Y0023400D02*
X0578333Y0028600D01*
X0568333Y0028600D02*
X0568333Y0023400D01*
X0558333Y0023400D02*
X0558333Y0028600D01*
X0548333Y0028600D02*
X0548333Y0023400D01*
X0538333Y0023400D02*
X0538333Y0028600D01*
X0528333Y0028600D02*
X0528333Y0023400D01*
X0518333Y0023400D02*
X0518333Y0028600D01*
D16*
X0518333Y0026000D02*
X0528333Y0036000D01*
X0528333Y0037500D01*
X0506833Y0056500D01*
X0518333Y0056000D02*
X0533845Y0040488D01*
X0603333Y0040488D01*
X0607822Y0040488D01*
X0616333Y0047000D01*
X0616333Y0061300D01*
X0618333Y0065300D01*
X0589833Y0064000D02*
X0585333Y0064000D01*
X0583589Y0065744D01*
X0588845Y0071000D01*
X0585822Y0079000D02*
X0577822Y0071000D01*
X0568845Y0071000D01*
X0566333Y0073512D01*
X0566333Y0078000D01*
X0553333Y0080500D02*
X0548845Y0076012D01*
X0548845Y0071000D01*
X0548333Y0070488D01*
X0548333Y0056000D01*
X0538333Y0056000D02*
X0538333Y0054500D01*
X0543833Y0047000D01*
X0590333Y0047000D01*
X0599833Y0058000D01*
X0599833Y0070500D01*
X0603333Y0074500D02*
X0598833Y0079000D01*
X0585822Y0079000D01*
X0577633Y0081000D02*
X0572633Y0086000D01*
X0584033Y0086000D02*
X0584033Y0106000D01*
X0583333Y0106000D01*
X0578333Y0111000D01*
X0552633Y0111000D01*
X0547633Y0106000D01*
X0547633Y0086000D01*
X0557822Y0084788D02*
X0559033Y0086000D01*
X0557822Y0084788D02*
X0557822Y0071000D01*
X0558333Y0070488D01*
X0558333Y0056000D01*
X0568333Y0056000D02*
X0568333Y0061000D01*
X0571333Y0064000D01*
X0581845Y0064000D01*
X0583589Y0065744D01*
X0603333Y0074500D02*
X0603333Y0051512D01*
X0603345Y0051500D01*
X0611833Y0051500D01*
X0623333Y0051512D02*
X0623845Y0051000D01*
X0628333Y0051000D01*
X0632333Y0046000D01*
X0632333Y0036000D01*
X0628333Y0031000D01*
X0613333Y0031000D01*
X0603333Y0021000D01*
X0603333Y0007500D01*
X0601833Y0005500D01*
X0582833Y0005500D01*
X0578333Y0010500D01*
X0578333Y0016000D01*
X0568333Y0026000D01*
X0568333Y0031000D01*
X0563333Y0036000D01*
X0528333Y0036000D01*
X0512333Y0039000D02*
X0508822Y0035488D01*
X0503333Y0035488D01*
X0528333Y0026000D02*
X0528333Y0011500D01*
X0538333Y0010500D02*
X0538333Y0026000D01*
X0548333Y0026000D02*
X0548333Y0011500D01*
X0558333Y0010500D02*
X0558333Y0026000D01*
X0578333Y0026000D02*
X0588333Y0026000D01*
X0588333Y0011500D01*
X0617322Y0040488D01*
X0623333Y0040488D01*
X0578333Y0056000D02*
X0573333Y0050500D01*
X0538333Y0056000D02*
X0538333Y0061512D01*
X0528845Y0071000D01*
X0523333Y0076000D02*
X0518333Y0071000D01*
X0517822Y0071000D01*
X0503845Y0071000D01*
X0503333Y0070488D01*
X0503322Y0070500D01*
X0488333Y0070500D01*
X0487833Y0068500D01*
X0487833Y0055000D01*
X0490845Y0050488D01*
X0493333Y0050488D01*
X0497310Y0046512D01*
X0503333Y0046512D01*
X0528333Y0054000D02*
X0536333Y0046000D01*
X0528333Y0054000D02*
X0528333Y0056000D01*
X0528333Y0057000D01*
X0521833Y0063500D01*
X0495322Y0063500D01*
X0493333Y0061512D01*
X0532822Y0076000D02*
X0537822Y0071000D01*
X0538333Y0071000D01*
X0538333Y0075500D01*
X0545833Y0078000D01*
X0553333Y0080500D02*
X0553333Y0091000D01*
X0558333Y0096000D01*
X0568333Y0096000D01*
X0573333Y0101000D01*
X0573333Y0105300D01*
X0572633Y0106000D01*
X0584033Y0106000D02*
X0584733Y0106700D01*
X0598333Y0106700D01*
X0547633Y0106000D02*
X0542633Y0111000D01*
X0528333Y0111000D01*
X0523333Y0106000D01*
X0523333Y0097500D01*
X0528333Y0093500D02*
X0534033Y0101700D01*
X0534033Y0106000D01*
X0523333Y0106000D02*
X0522633Y0106000D01*
X0517322Y0093500D02*
X0503333Y0081512D01*
X0528333Y0081000D02*
X0528333Y0093500D01*
X0517322Y0093500D01*
X0528333Y0081000D02*
X0531333Y0078000D01*
X0535833Y0078000D01*
X0532822Y0076000D02*
X0523333Y0076000D01*
X0577633Y0081000D02*
X0603333Y0081000D01*
X0603333Y0086000D02*
X0584033Y0086000D01*
X0603333Y0086000D02*
X0612633Y0076700D01*
X0618333Y0076700D01*
D17*
X0603333Y0081000D03*
X0566333Y0078000D03*
X0545833Y0078000D03*
X0535833Y0078000D03*
X0599833Y0070500D03*
X0589833Y0064000D03*
X0611833Y0051500D03*
X0573333Y0050500D03*
X0536333Y0046000D03*
X0512333Y0039000D03*
X0506833Y0056500D03*
X0523333Y0097500D03*
M02*
