G75*
%MOIN*%
%OFA0B0*%
%FSLAX25Y25*%
%IPPOS*%
%LPD*%
%AMOC8*
5,1,8,0,0,1.08239X$1,22.5*
%
%ADD10C,0.07400*%
%ADD11R,0.07400X0.07400*%
%ADD12C,0.05200*%
%ADD13C,0.04356*%
%ADD14C,0.01000*%
D10*
X0522633Y0086000D03*
X0534033Y0086000D03*
X0547633Y0086000D03*
X0559033Y0086000D03*
X0572633Y0086000D03*
X0584033Y0086000D03*
X0598333Y0095300D03*
X0584033Y0106000D03*
X0572633Y0106000D03*
X0559033Y0106000D03*
X0547633Y0106000D03*
X0534033Y0106000D03*
X0522633Y0106000D03*
X0598333Y0106700D03*
X0618333Y0076700D03*
X0618333Y0065300D03*
X0588333Y0011500D03*
X0598333Y0010500D03*
X0578333Y0010500D03*
X0548333Y0011500D03*
X0538333Y0010500D03*
X0528333Y0011500D03*
D11*
X0558333Y0010500D03*
D12*
X0558333Y0023400D02*
X0558333Y0028600D01*
X0548333Y0028600D02*
X0548333Y0023400D01*
X0538333Y0023400D02*
X0538333Y0028600D01*
X0528333Y0028600D02*
X0528333Y0023400D01*
X0518333Y0023400D02*
X0518333Y0028600D01*
X0568333Y0028600D02*
X0568333Y0023400D01*
X0578333Y0023400D02*
X0578333Y0028600D01*
X0588333Y0028600D02*
X0588333Y0023400D01*
X0588333Y0053400D02*
X0588333Y0058600D01*
X0578333Y0058600D02*
X0578333Y0053400D01*
X0568333Y0053400D02*
X0568333Y0058600D01*
X0558333Y0058600D02*
X0558333Y0053400D01*
X0548333Y0053400D02*
X0548333Y0058600D01*
X0538333Y0058600D02*
X0538333Y0053400D01*
X0528333Y0053400D02*
X0528333Y0058600D01*
X0518333Y0058600D02*
X0518333Y0053400D01*
D13*
X0506833Y0056500D03*
X0536333Y0046000D03*
X0573333Y0050500D03*
X0611833Y0051500D03*
X0589833Y0064000D03*
X0599833Y0070500D03*
X0566333Y0078000D03*
X0545833Y0078000D03*
X0535833Y0078000D03*
X0603333Y0081000D03*
X0523333Y0097500D03*
X0512333Y0039000D03*
D14*
X0512333Y0077000D01*
X0513833Y0078500D01*
X0526533Y0078500D01*
X0534033Y0086000D01*
X0542333Y0079300D01*
X0542333Y0070000D01*
X0544833Y0062500D01*
X0580333Y0062500D01*
X0588333Y0057000D01*
X0588333Y0056000D01*
X0595833Y0053500D02*
X0595833Y0092800D01*
X0598333Y0095300D01*
X0565833Y0100500D02*
X0565833Y0084000D01*
X0571833Y0078000D01*
X0586333Y0078000D01*
X0593333Y0071000D01*
X0593333Y0067500D01*
X0589833Y0064000D01*
X0599833Y0070500D02*
X0599833Y0077500D01*
X0603333Y0081000D01*
X0566333Y0078000D02*
X0545833Y0078000D01*
X0538333Y0075500D02*
X0535833Y0078000D01*
X0538333Y0075500D02*
X0538333Y0066000D01*
X0543333Y0061000D01*
X0543333Y0051000D01*
X0545833Y0048500D01*
X0573333Y0048500D01*
X0573333Y0050500D01*
X0588333Y0046000D02*
X0595833Y0053500D01*
X0611833Y0051500D02*
X0611833Y0035000D01*
X0598333Y0021500D01*
X0598333Y0010500D01*
X0588333Y0046000D02*
X0536333Y0046000D01*
X0506833Y0056500D02*
X0506833Y0058000D01*
X0509833Y0061000D01*
X0509833Y0082500D01*
X0513333Y0086000D01*
X0522633Y0086000D01*
X0523333Y0086700D01*
X0523333Y0097500D01*
X0560333Y0106000D02*
X0565833Y0100500D01*
X0560333Y0106000D02*
X0559033Y0106000D01*
M02*
