G75*
%MOIN*%
%OFA0B0*%
%FSLAX25Y25*%
%IPPOS*%
%LPD*%
%AMOC8*
5,1,8,0,0,1.08239X$1,22.5*
%
%ADD10C,0.07400*%
%ADD11R,0.07400X0.07400*%
%ADD12C,0.05200*%
%ADD13C,0.01000*%
D10*
X0493833Y0051000D03*
X0508833Y0051000D03*
X0507833Y0061000D03*
X0492833Y0061000D03*
X0493833Y0071000D03*
X0508833Y0071000D03*
X0528333Y0080500D03*
X0538333Y0081500D03*
X0518333Y0081500D03*
X0573333Y0086500D03*
X0583333Y0085500D03*
X0593333Y0086500D03*
X0603333Y0085500D03*
X0613333Y0086500D03*
X0579833Y0100500D03*
X0589833Y0101500D03*
X0569833Y0101500D03*
X0559833Y0100500D03*
X0549833Y0101500D03*
X0538333Y0096500D03*
X0528333Y0095500D03*
X0518333Y0096500D03*
X0608333Y0066500D03*
X0618333Y0065500D03*
X0628333Y0066500D03*
X0628333Y0051500D03*
X0618333Y0050500D03*
X0608333Y0051500D03*
X0608333Y0036500D03*
X0618333Y0035500D03*
X0628333Y0036500D03*
X0588333Y0011500D03*
X0578333Y0010500D03*
X0553333Y0011500D03*
X0543333Y0010500D03*
X0533333Y0011500D03*
X0598333Y0010500D03*
D11*
X0563333Y0010500D03*
D12*
X0563333Y0028400D02*
X0563333Y0033600D01*
X0553333Y0033600D02*
X0553333Y0028400D01*
X0543333Y0028400D02*
X0543333Y0033600D01*
X0533333Y0033600D02*
X0533333Y0028400D01*
X0523333Y0028400D02*
X0523333Y0033600D01*
X0573333Y0033600D02*
X0573333Y0028400D01*
X0583333Y0028400D02*
X0583333Y0033600D01*
X0593333Y0033600D02*
X0593333Y0028400D01*
X0593333Y0058400D02*
X0593333Y0063600D01*
X0583333Y0063600D02*
X0583333Y0058400D01*
X0573333Y0058400D02*
X0573333Y0063600D01*
X0563333Y0063600D02*
X0563333Y0058400D01*
X0553333Y0058400D02*
X0553333Y0063600D01*
X0543333Y0063600D02*
X0543333Y0058400D01*
X0533333Y0058400D02*
X0533333Y0063600D01*
X0523333Y0063600D02*
X0523333Y0058400D01*
D13*
X0508833Y0071000D02*
X0603833Y0071000D01*
X0608333Y0066500D01*
X0618333Y0065500D02*
X0618333Y0081500D01*
X0613333Y0086500D01*
X0618333Y0035500D02*
X0618333Y0031000D01*
X0613333Y0026000D01*
X0598333Y0026000D01*
X0593333Y0031000D01*
X0573333Y0031000D02*
X0573333Y0026000D01*
X0578333Y0021000D01*
X0578333Y0010500D01*
X0563333Y0010500D02*
X0563333Y0031000D01*
X0553333Y0031000D02*
X0553333Y0011500D01*
X0543333Y0010500D02*
X0543333Y0031000D01*
X0533333Y0031000D02*
X0533333Y0011500D01*
M02*
